<?xml version="1.0" encoding="utf-8"?>
<svg version="1.1" xmlns:xlink="http://www.w3.org/1999/xlink" width="25px" height="25px" xmlns="http://www.w3.org/2000/svg">
  <g transform="matrix(1 0 0 1 -22 -395 )">
    <path d="M 2.3613518197573655 0.2650669642857151  L 24.54506065857886 14.55078125  C 24.992778740612366 14.829799107142858  25.093876372039286 15.150669642857142  24.84835355285962 15.513392857142858  C 24.602830733679955 15.885416666666668  24.176776429809358 16.07142857142857  23.570190641247834 16.07142857142857  L 15.294627383015596 16.07142857142857  L 19.64904679376083 22.712053571428573  C 19.793471981513576 22.944568452380953  19.793471981513576 23.172433035714285  19.64904679376083 23.395647321428573  C 19.50462160600809 23.618861607142858  19.259098786828424 23.781622023809526  18.912478336221834 23.883928571428573  L 15.077989601386482 24.930245535714285  C 14.716926632004624 25.023251488095237  14.3630849220104 25.023251488095237  14.016464471403815 24.930245535714285  C 13.669844020797228 24.837239583333332  13.417099942229926 24.679129464285715  13.258232235701906 24.455915178571427  L 9.120450606585788 18.150111607142858  L 2.3613518197573655 22.502790178571427  C 2.0869439630271525 22.679501488095237  1.7619872905834781 22.767857142857142  1.386481802426343 22.767857142857142  C 1.2131715771230502 22.767857142857142  1.0398613518197575 22.744605654761905  0.8665511265164645 22.698102678571427  C 0.28885037550548814 22.53999255952381  0 22.265625  0 21.875  L 0 0.8928571428571425  C 0 0.5022321428571425  0.28885037550548814 0.22786458333333148  0.8665511265164645 0.06975446428571508  C 1.0398613518197575 0.02325148809523836  1.2131715771230502 0  1.386481802426343 0  C 1.776429809358752 0  2.101386481802426 0.08835565476190688  2.3613518197573655 0.2650669642857151  Z " fill-rule="nonzero" fill="#d7d7d7" stroke="none" transform="matrix(1 0 0 1 22 395 )" />
  </g>
</svg>