<?xml version="1.0" encoding="utf-8"?>
<svg version="1.1" xmlns:xlink="http://www.w3.org/1999/xlink" width="25px" height="25px" xmlns="http://www.w3.org/2000/svg">
  <g transform="matrix(1 0 0 1 -22 -150 )">
    <path d="M 13 11.253004807692307  L 13 22.551081730769234  L 23.076923076923077 17.307692307692307  L 23.076923076923077 7.752403846153847  L 13 11.253004807692307  Z M 2.013221153846154 5.7391826923076925  L 12.5 9.555288461538462  L 22.986778846153847 5.7391826923076925  L 12.5 1.9230769230769218  L 2.013221153846154 5.7391826923076925  Z M 24.654447115384613 4.672475961538461  C 24.884815705128208 5.0030048076923075  25 5.368589743589741  25 5.769230769230768  L 25 17.307692307692307  C 25 17.658253205128204  24.909855769230766 17.98377403846154  24.729567307692307 18.284254807692307  C 24.549278846153847 18.584735576923077  24.30388621794872 18.820112179487182  23.993389423076923 18.990384615384613  L 13.416466346153847 24.759615384615387  C 13.13601762820513 24.919871794871796  12.830528846153847 25  12.5 25  C 12.169471153846153 25  11.863982371794874 24.919871794871796  11.583533653846153 24.759615384615387  L 1.006610576923077 18.990384615384613  C 0.696113782051282 18.820112179487182  0.4507211538461539 18.584735576923077  0.2704326923076923 18.284254807692307  C 0.09014423076923077 17.98377403846154  0 17.658253205128204  0 17.307692307692307  L 0 5.769230769230768  C 0 5.368589743589741  0.11518429487179485 5.0030048076923075  0.3455528846153846 4.672475961538461  C 0.5759214743589745 4.341947115384615  0.8814102564102564 4.106570512820512  1.2620192307692308 3.9663461538461537  L 11.838942307692307 0.12019230769230727  C 12.059294871794874 0.040064102564099646  12.279647435897438 0  12.5 0  C 12.720352564102566 0  12.94070512820513 0.040064102564099646  13.161057692307693 0.12019230769230727  L 23.737980769230766 3.9663461538461537  C 24.118589743589748 4.106570512820512  24.424078525641026 4.341947115384615  24.654447115384613 4.672475961538461  Z " fill-rule="nonzero" fill="#aaaaaa" stroke="none" transform="matrix(1 0 0 1 22 150 )" />
  </g>
</svg>