<?xml version="1.0" encoding="UTF-8"?>
<svg version="1.1" xmlns="http://www.w3.org/2000/svg" width="50" height="50">
<path d="M0 0 C3.0164216 0.5245499 4.12049825 1.0091372 6.265625 3.12597656 C6.8328125 3.68542969 7.4 4.24488281 7.984375 4.82128906 C8.55414063 5.41425781 9.12390625 6.00722656 9.7109375 6.61816406 C10.30390625 7.18792969 10.896875 7.75769531 11.5078125 8.34472656 C12.06726562 8.91191406 12.62671875 9.47910156 13.203125 10.06347656 C13.70956543 10.57668457 14.21600586 11.08989258 14.73779297 11.61865234 C16.41225094 14.47692009 16.34429119 16.2316473 15.8359375 19.49316406 C14.1429131 21.78372649 12.59015704 23.5820996 10.578125 25.54785156 C10.03745392 26.094263 9.49678284 26.64067444 8.93972778 27.2036438 C7.79531027 28.35213492 6.64331759 29.49312096 5.484375 30.62695312 C3.71637926 32.36282119 1.98267407 34.12836731 0.25 35.89941406 C-0.867873 37.01332205 -1.9876059 38.12536727 -3.109375 39.23535156 C-3.88319016 40.0273848 -3.88319016 40.0273848 -4.67263794 40.8354187 C-7.21065176 43.27744239 -8.81250721 44.43836918 -12.328125 44.98632812 C-15.3445466 44.46177823 -16.44862325 43.97719092 -18.59375 41.86035156 C-19.1609375 41.30089844 -19.728125 40.74144531 -20.3125 40.16503906 C-20.88226563 39.57207031 -21.45203125 38.97910156 -22.0390625 38.36816406 C-22.63203125 37.79839844 -23.225 37.22863281 -23.8359375 36.64160156 C-24.39539063 36.07441406 -24.95484375 35.50722656 -25.53125 34.92285156 C-26.29091064 34.15303955 -26.29091064 34.15303955 -27.06591797 33.36767578 C-28.74037594 30.50940804 -28.67241619 28.75468083 -28.1640625 25.49316406 C-26.4710381 23.20260163 -24.91828204 21.40422853 -22.90625 19.43847656 C-22.36557892 18.89206512 -21.82490784 18.34565369 -21.26785278 17.78268433 C-20.12343527 16.63419321 -18.97144259 15.49320716 -17.8125 14.359375 C-16.04450426 12.62350694 -14.31079907 10.85796081 -12.578125 9.08691406 C-11.460252 7.97300608 -10.3405191 6.86096085 -9.21875 5.75097656 C-8.70287323 5.22295441 -8.18699646 4.69493225 -7.65548706 4.15090942 C-5.11747324 1.70888573 -3.51561779 0.54795895 0 0 Z M-16.765625 18.89941406 C-17.77853792 19.92565478 -18.78614377 20.95715411 -19.7890625 21.99316406 C-20.3046875 22.5178125 -20.8203125 23.04246094 -21.3515625 23.58300781 C-22.62691182 24.88197471 -23.89607511 26.18700983 -25.1640625 27.49316406 C-23.57738672 31.39602173 -21.03055769 33.82837388 -18.0390625 36.74316406 C-17.12898438 37.63519531 -16.21890625 38.52722656 -15.28125 39.44628906 C-14.58257812 40.12175781 -13.88390625 40.79722656 -13.1640625 41.49316406 C-9.48336363 39.95672554 -7.17631046 37.71165461 -4.4140625 34.86816406 C-3.61484375 34.05089844 -2.815625 33.23363281 -1.9921875 32.39160156 C-1.38890625 31.76511719 -0.785625 31.13863281 -0.1640625 30.49316406 C-1.74967888 26.63723332 -4.22916204 24.16100115 -7.1640625 21.24316406 C-8.0509375 20.35113281 -8.9378125 19.45910156 -9.8515625 18.54003906 C-13.18758907 15.58720473 -13.47555069 15.85634233 -16.765625 18.89941406 Z " stroke-width="1" stroke="#aaaaaa" fill="#aaaaaa" transform="translate(31.1640625,2.5068359375)"/>
</svg>
