<?xml version="1.0" encoding="utf-8"?>
<svg version="1.1" xmlns:xlink="http://www.w3.org/1999/xlink" width="40px" height="40px" xmlns="http://www.w3.org/2000/svg">
  <g transform="matrix(1 0 0 1 -20 -20 )">
    <path d="M 20 20  L 60 20  L 60 60  L 20 60  L 20 20  " fill-rule="nonzero" fill="#cccccc" stroke="none" />
    <path d="M 23 23  L 57 23  L 57 57  L 23 57  L 23 23  " fill-rule="nonzero" fill="#ffffff" stroke="none" />
    <path d="M 43.8 32  C 42.12 32  40.8 30.68  40.8 29  C 40.8 27.32  42.12 26  43.8 26  C 45.48 26  46.8 27.32  46.8 29  C 46.8 30.68  45.48 32  43.8 32  " fill-rule="nonzero" fill="#cccccc" stroke="none" />
    <path d="M 24 56  L 24 38.4  L 32 30.4  L 43.2 36.8  L 49.6 35.2  L 56 36.8  L 56 56  L 24 56  " fill-rule="nonzero" fill="#169bd5" stroke="none" />
  </g>
</svg>